<?xml version="1.0" encoding="UTF-8" standalone="no"?>
<!-- Created with Inkscape (http://www.inkscape.org/) -->

<svg
   xmlns:dc="http://purl.org/dc/elements/1.1/"
   xmlns:cc="http://creativecommons.org/ns#"
   xmlns:rdf="http://www.w3.org/1999/02/22-rdf-syntax-ns#"
   xmlns:svg="http://www.w3.org/2000/svg"
   xmlns="http://www.w3.org/2000/svg"
   xmlns:sodipodi="http://sodipodi.sourceforge.net/DTD/sodipodi-0.dtd"
   xmlns:inkscape="http://www.inkscape.org/namespaces/inkscape"
   sodipodi:docname="face.svg"
   inkscape:version="0.48.2 r9819"
   version="1.1"
   id="svg2"
   height="364.46201"
   width="420.05048">
  <sodipodi:namedview
     id="base"
     pagecolor="#ffffff"
     bordercolor="#666666"
     borderopacity="1.0"
     inkscape:pageopacity="0.0"
     inkscape:pageshadow="2"
     inkscape:zoom="0.98994949"
     inkscape:cx="459.72023"
     inkscape:cy="158.24186"
     inkscape:document-units="px"
     inkscape:current-layer="layer1"
     showgrid="false"
     inkscape:object-paths="true"
     inkscape:object-nodes="true"
     inkscape:snap-intersection-paths="true"
     inkscape:window-width="1203"
     inkscape:window-height="756"
     inkscape:window-x="77"
     inkscape:window-y="0"
     inkscape:window-maximized="0"
     inkscape:snap-midpoints="true"
     inkscape:snap-global="false"
     fit-margin-top="0"
     fit-margin-left="0"
     fit-margin-right="0"
     fit-margin-bottom="0"
     inkscape:snap-smooth-nodes="true"
     showguides="true"
     inkscape:guide-bbox="true">
    <inkscape:grid
       snapvisiblegridlinesonly="true"
       enabled="true"
       visible="true"
       empspacing="5"
       units="px"
       id="grid5625"
       type="xygrid"
       spacingx="1px"
       spacingy="1px"
       originx="0px"
       originy="0px" />
  </sodipodi:namedview>
  <defs
     id="defs4">
    <marker
       style="overflow:visible"
       id="Arrow2Mstart"
       refX="0"
       refY="0"
       orient="auto"
       inkscape:stockid="Arrow2Mstart">
      <path
         transform="scale(0.6,0.6)"
         d="M 8.7185878,4.0337352 -2.2072895,0.01601326 8.7185884,-4.0017078 c -1.7454984,2.3720609 -1.7354408,5.6174519 -6e-7,8.035443 z"
         style="font-size:12px;fill-rule:evenodd;stroke-width:0.625;stroke-linejoin:round"
         id="path4043"
         inkscape:connector-curvature="0" />
    </marker>
    <marker
       style="overflow:visible"
       id="Arrow2Send"
       refX="0"
       refY="0"
       orient="auto"
       inkscape:stockid="Arrow2Send">
      <path
         transform="matrix(-0.3,0,0,-0.3,0.69,0)"
         d="M 8.7185878,4.0337352 -2.2072895,0.01601326 8.7185884,-4.0017078 c -1.7454984,2.3720609 -1.7354408,5.6174519 -6e-7,8.035443 z"
         style="font-size:12px;fill-rule:evenodd;stroke-width:0.625;stroke-linejoin:round"
         id="path3810"
         inkscape:connector-curvature="0" />
    </marker>
    <marker
       inkscape:stockid="Arrow2Mend"
       orient="auto"
       refY="0"
       refX="0"
       id="Arrow2Mend"
       style="overflow:visible">
      <path
         id="path3804"
         style="font-size:12px;fill-rule:evenodd;stroke-width:0.625;stroke-linejoin:round"
         d="M 8.7185878,4.0337352 -2.2072895,0.01601326 8.7185884,-4.0017078 c -1.7454984,2.3720609 -1.7354408,5.6174519 -6e-7,8.035443 z"
         transform="scale(-0.6,-0.6)"
         inkscape:connector-curvature="0" />
    </marker>
    <marker
       inkscape:stockid="Arrow1Mend"
       orient="auto"
       refY="0"
       refX="0"
       id="Arrow1Mend"
       style="overflow:visible">
      <path
         id="path3786"
         d="M 0,0 5,-5 -12.5,0 5,5 0,0 z"
         style="fill-rule:evenodd;stroke:#000000;stroke-width:1pt;marker-start:none"
         transform="matrix(-0.4,0,0,-0.4,-4,0)"
         inkscape:connector-curvature="0" />
    </marker>
    <marker
       style="overflow:visible"
       id="Arrow2Lend"
       refX="0"
       refY="0"
       orient="auto"
       inkscape:stockid="Arrow2Lend">
      <path
         transform="matrix(-1.1,0,0,-1.1,-1.1,0)"
         d="M 8.7185878,4.0337352 -2.2072895,0.01601326 8.7185884,-4.0017078 c -1.7454984,2.3720609 -1.7354408,5.6174519 -6e-7,8.035443 z"
         style="font-size:12px;fill-rule:evenodd;stroke-width:0.625;stroke-linejoin:round"
         id="path4919"
         inkscape:connector-curvature="0" />
    </marker>
    <marker
       style="overflow:visible"
       id="Arrow1Lend"
       refX="0"
       refY="0"
       orient="auto"
       inkscape:stockid="Arrow1Lend">
      <path
         transform="matrix(-0.8,0,0,-0.8,-10,0)"
         style="fill-rule:evenodd;stroke:#000000;stroke-width:1pt;marker-start:none"
         d="M 0,0 5,-5 -12.5,0 5,5 0,0 z"
         id="path4901"
         inkscape:connector-curvature="0" />
    </marker>
    <marker
       inkscape:stockid="Arrow2MendK"
       orient="auto"
       refY="0"
       refX="0"
       id="Arrow2MendK"
       style="overflow:visible">
      <path
         id="path4425"
         style="font-size:12px;fill:#ff0000;fill-rule:evenodd;stroke:#ff0000;stroke-width:0.625;stroke-linejoin:round"
         d="M 8.7185878,4.0337352 -2.2072895,0.01601326 8.7185884,-4.0017078 c -1.7454984,2.3720609 -1.7354408,5.6174519 -6e-7,8.035443 z"
         transform="scale(-0.6,-0.6)"
         inkscape:connector-curvature="0" />
    </marker>
    <marker
       inkscape:stockid="Arrow2Mendx"
       orient="auto"
       refY="0"
       refX="0"
       id="Arrow2Mendx"
       style="overflow:visible">
      <path
         id="path4985"
         style="font-size:12px;fill:#b4b4b4;fill-rule:evenodd;stroke:#b4b4b4;stroke-width:0.625;stroke-linejoin:round"
         d="M 8.7185878,4.0337352 -2.2072895,0.01601326 8.7185884,-4.0017078 c -1.7454984,2.3720609 -1.7354408,5.6174519 -6e-7,8.035443 z"
         transform="scale(-0.6,-0.6)"
         inkscape:connector-curvature="0" />
    </marker>
    <marker
       inkscape:stockid="Arrow2MendxN"
       orient="auto"
       refY="0"
       refX="0"
       id="Arrow2MendxN"
       style="overflow:visible">
      <path
         id="path4988"
         style="font-size:12px;fill:#b4b4b4;fill-rule:evenodd;stroke:#b4b4b4;stroke-width:0.625;stroke-linejoin:round"
         d="M 8.7185878,4.0337352 -2.2072895,0.01601326 8.7185884,-4.0017078 c -1.7454984,2.3720609 -1.7354408,5.6174519 -6e-7,8.035443 z"
         transform="scale(-0.6,-0.6)"
         inkscape:connector-curvature="0" />
    </marker>
    <marker
       inkscape:stockid="Arrow2Mend0"
       orient="auto"
       refY="0"
       refX="0"
       id="Arrow2Mend0"
       style="overflow:visible">
      <path
         id="path4991"
         style="font-size:12px;fill:#b4b4b4;fill-rule:evenodd;stroke:#b4b4b4;stroke-width:0.625;stroke-linejoin:round"
         d="M 8.7185878,4.0337352 -2.2072895,0.01601326 8.7185884,-4.0017078 c -1.7454984,2.3720609 -1.7354408,5.6174519 -6e-7,8.035443 z"
         transform="scale(-0.6,-0.6)"
         inkscape:connector-curvature="0" />
    </marker>
    <marker
       inkscape:stockid="Arrow2MendM"
       orient="auto"
       refY="0"
       refX="0"
       id="Arrow2MendM"
       style="overflow:visible">
      <path
         id="path4994"
         style="font-size:12px;fill:#b4b4b4;fill-rule:evenodd;stroke:#b4b4b4;stroke-width:0.625;stroke-linejoin:round"
         d="M 8.7185878,4.0337352 -2.2072895,0.01601326 8.7185884,-4.0017078 c -1.7454984,2.3720609 -1.7354408,5.6174519 -6e-7,8.035443 z"
         transform="scale(-0.6,-0.6)"
         inkscape:connector-curvature="0" />
    </marker>
    <marker
       inkscape:stockid="Arrow2Mend0w"
       orient="auto"
       refY="0"
       refX="0"
       id="Arrow2Mend0w"
       style="overflow:visible">
      <path
         id="path4997"
         style="font-size:12px;fill:#b4b4b4;fill-rule:evenodd;stroke:#b4b4b4;stroke-width:0.625;stroke-linejoin:round"
         d="M 8.7185878,4.0337352 -2.2072895,0.01601326 8.7185884,-4.0017078 c -1.7454984,2.3720609 -1.7354408,5.6174519 -6e-7,8.035443 z"
         transform="scale(-0.6,-0.6)"
         inkscape:connector-curvature="0" />
    </marker>
    <marker
       inkscape:stockid="Arrow2Mend1"
       orient="auto"
       refY="0"
       refX="0"
       id="Arrow2Mend1"
       style="overflow:visible">
      <path
         id="path5000"
         style="font-size:12px;fill:#b4b4b4;fill-rule:evenodd;stroke:#b4b4b4;stroke-width:0.625;stroke-linejoin:round"
         d="M 8.7185878,4.0337352 -2.2072895,0.01601326 8.7185884,-4.0017078 c -1.7454984,2.3720609 -1.7354408,5.6174519 -6e-7,8.035443 z"
         transform="scale(-0.6,-0.6)"
         inkscape:connector-curvature="0" />
    </marker>
    <marker
       inkscape:stockid="Arrow2MendY"
       orient="auto"
       refY="0"
       refX="0"
       id="Arrow2MendY"
       style="overflow:visible">
      <path
         id="path5003"
         style="font-size:12px;fill:#b4b4b4;fill-rule:evenodd;stroke:#b4b4b4;stroke-width:0.625;stroke-linejoin:round"
         d="M 8.7185878,4.0337352 -2.2072895,0.01601326 8.7185884,-4.0017078 c -1.7454984,2.3720609 -1.7354408,5.6174519 -6e-7,8.035443 z"
         transform="scale(-0.6,-0.6)"
         inkscape:connector-curvature="0" />
    </marker>
    <marker
       inkscape:stockid="Arrow2Mend9"
       orient="auto"
       refY="0"
       refX="0"
       id="Arrow2Mend9"
       style="overflow:visible">
      <path
         id="path5006"
         style="font-size:12px;fill:#b4b4b4;fill-rule:evenodd;stroke:#b4b4b4;stroke-width:0.625;stroke-linejoin:round"
         d="M 8.7185878,4.0337352 -2.2072895,0.01601326 8.7185884,-4.0017078 c -1.7454984,2.3720609 -1.7354408,5.6174519 -6e-7,8.035443 z"
         transform="scale(-0.6,-0.6)"
         inkscape:connector-curvature="0" />
    </marker>
    <marker
       inkscape:stockid="Arrow2Mendc"
       orient="auto"
       refY="0"
       refX="0"
       id="Arrow2Mendc"
       style="overflow:visible">
      <path
         id="path4186"
         style="font-size:12px;fill:#b4b4b4;fill-rule:evenodd;stroke:#b4b4b4;stroke-width:0.625;stroke-linejoin:round"
         d="M 8.7185878,4.0337352 -2.2072895,0.01601326 8.7185884,-4.0017078 c -1.7454984,2.3720609 -1.7354408,5.6174519 -6e-7,8.035443 z"
         transform="scale(-0.6,-0.6)"
         inkscape:connector-curvature="0" />
    </marker>
    <marker
       inkscape:stockid="Arrow2Mendz"
       orient="auto"
       refY="0"
       refX="0"
       id="Arrow2Mendz"
       style="overflow:visible">
      <path
         id="path4189"
         style="font-size:12px;fill:#b4b4b4;fill-rule:evenodd;stroke:#b4b4b4;stroke-width:0.625;stroke-linejoin:round"
         d="M 8.7185878,4.0337352 -2.2072895,0.01601326 8.7185884,-4.0017078 c -1.7454984,2.3720609 -1.7354408,5.6174519 -6e-7,8.035443 z"
         transform="scale(-0.6,-0.6)"
         inkscape:connector-curvature="0" />
    </marker>
    <marker
       inkscape:stockid="Arrow2Mend8"
       orient="auto"
       refY="0"
       refX="0"
       id="Arrow2Mend8"
       style="overflow:visible">
      <path
         id="path4440"
         style="font-size:12px;fill:#b4b4b4;fill-rule:evenodd;stroke:#b4b4b4;stroke-width:0.625;stroke-linejoin:round"
         d="M 8.7185878,4.0337352 -2.2072895,0.01601326 8.7185884,-4.0017078 c -1.7454984,2.3720609 -1.7354408,5.6174519 -6e-7,8.035443 z"
         transform="scale(-0.6,-0.6)"
         inkscape:connector-curvature="0" />
    </marker>
    <marker
       inkscape:stockid="Arrow2MendzK"
       orient="auto"
       refY="0"
       refX="0"
       id="Arrow2MendzK"
       style="overflow:visible">
      <path
         id="path4551"
         style="font-size:12px;fill:#000000;fill-rule:evenodd;stroke:#000000;stroke-width:0.625;stroke-linejoin:round"
         d="M 8.7185878,4.0337352 -2.2072895,0.01601326 8.7185884,-4.0017078 c -1.7454984,2.3720609 -1.7354408,5.6174519 -6e-7,8.035443 z"
         transform="scale(-0.6,-0.6)"
         inkscape:connector-curvature="0" />
    </marker>
    <marker
       inkscape:stockid="Arrow2MendU"
       orient="auto"
       refY="0"
       refX="0"
       id="Arrow2MendU"
       style="overflow:visible">
      <path
         id="path4554"
         style="font-size:12px;fill:#b4b4b4;fill-rule:evenodd;stroke:#b4b4b4;stroke-width:0.625;stroke-linejoin:round"
         d="M 8.7185878,4.0337352 -2.2072895,0.01601326 8.7185884,-4.0017078 c -1.7454984,2.3720609 -1.7354408,5.6174519 -6e-7,8.035443 z"
         transform="scale(-0.6,-0.6)"
         inkscape:connector-curvature="0" />
    </marker>
    <marker
       inkscape:stockid="Arrow2MendKt"
       orient="auto"
       refY="0"
       refX="0"
       id="Arrow2MendKt"
       style="overflow:visible">
      <path
         id="path5271"
         style="font-size:12px;fill:#b4b4b4;fill-rule:evenodd;stroke:#b4b4b4;stroke-width:0.625;stroke-linejoin:round"
         d="M 8.7185878,4.0337352 -2.2072895,0.01601326 8.7185884,-4.0017078 c -1.7454984,2.3720609 -1.7354408,5.6174519 -6e-7,8.035443 z"
         transform="scale(-0.6,-0.6)"
         inkscape:connector-curvature="0" />
    </marker>
    <marker
       inkscape:stockid="Arrow2MendP"
       orient="auto"
       refY="0"
       refX="0"
       id="Arrow2MendP"
       style="overflow:visible">
      <path
         id="path5274"
         style="font-size:12px;fill:#b4b4b4;fill-rule:evenodd;stroke:#b4b4b4;stroke-width:0.625;stroke-linejoin:round"
         d="M 8.7185878,4.0337352 -2.2072895,0.01601326 8.7185884,-4.0017078 c -1.7454984,2.3720609 -1.7354408,5.6174519 -6e-7,8.035443 z"
         transform="scale(-0.6,-0.6)"
         inkscape:connector-curvature="0" />
    </marker>
    <marker
       inkscape:stockid="Arrow2MendR"
       orient="auto"
       refY="0"
       refX="0"
       id="Arrow2MendR"
       style="overflow:visible">
      <path
         id="path5277"
         style="font-size:12px;fill:#b4b4b4;fill-rule:evenodd;stroke:#b4b4b4;stroke-width:0.625;stroke-linejoin:round"
         d="M 8.7185878,4.0337352 -2.2072895,0.01601326 8.7185884,-4.0017078 c -1.7454984,2.3720609 -1.7354408,5.6174519 -6e-7,8.035443 z"
         transform="scale(-0.6,-0.6)"
         inkscape:connector-curvature="0" />
    </marker>
    <marker
       inkscape:stockid="Arrow2Mendd"
       orient="auto"
       refY="0"
       refX="0"
       id="Arrow2Mendd"
       style="overflow:visible">
      <path
         id="path5280"
         style="font-size:12px;fill:#b4b4b4;fill-rule:evenodd;stroke:#b4b4b4;stroke-width:0.625;stroke-linejoin:round"
         d="M 8.7185878,4.0337352 -2.2072895,0.01601326 8.7185884,-4.0017078 c -1.7454984,2.3720609 -1.7354408,5.6174519 -6e-7,8.035443 z"
         transform="scale(-0.6,-0.6)"
         inkscape:connector-curvature="0" />
    </marker>
    <marker
       inkscape:stockid="Arrow2Mendxi"
       orient="auto"
       refY="0"
       refX="0"
       id="Arrow2Mendxi"
       style="overflow:visible">
      <path
         id="path5283"
         style="font-size:12px;fill:#b4b4b4;fill-rule:evenodd;stroke:#b4b4b4;stroke-width:0.625;stroke-linejoin:round"
         d="M 8.7185878,4.0337352 -2.2072895,0.01601326 8.7185884,-4.0017078 c -1.7454984,2.3720609 -1.7354408,5.6174519 -6e-7,8.035443 z"
         transform="scale(-0.6,-0.6)"
         inkscape:connector-curvature="0" />
    </marker>
    <marker
       inkscape:stockid="Arrow2MendYx"
       orient="auto"
       refY="0"
       refX="0"
       id="Arrow2MendYx"
       style="overflow:visible">
      <path
         id="path5286"
         style="font-size:12px;fill:#b4b4b4;fill-rule:evenodd;stroke:#b4b4b4;stroke-width:0.625;stroke-linejoin:round"
         d="M 8.7185878,4.0337352 -2.2072895,0.01601326 8.7185884,-4.0017078 c -1.7454984,2.3720609 -1.7354408,5.6174519 -6e-7,8.035443 z"
         transform="scale(-0.6,-0.6)"
         inkscape:connector-curvature="0" />
    </marker>
    <marker
       inkscape:stockid="Arrow2MendJ"
       orient="auto"
       refY="0"
       refX="0"
       id="Arrow2MendJ"
       style="overflow:visible">
      <path
         id="path5289"
         style="font-size:12px;fill:#b4b4b4;fill-rule:evenodd;stroke:#b4b4b4;stroke-width:0.625;stroke-linejoin:round"
         d="M 8.7185878,4.0337352 -2.2072895,0.01601326 8.7185884,-4.0017078 c -1.7454984,2.3720609 -1.7354408,5.6174519 -6e-7,8.035443 z"
         transform="scale(-0.6,-0.6)"
         inkscape:connector-curvature="0" />
    </marker>
    <marker
       inkscape:stockid="Arrow2MendKx"
       orient="auto"
       refY="0"
       refX="0"
       id="Arrow2MendKx"
       style="overflow:visible">
      <path
         id="path5292"
         style="font-size:12px;fill:#b4b4b4;fill-rule:evenodd;stroke:#b4b4b4;stroke-width:0.625;stroke-linejoin:round"
         d="M 8.7185878,4.0337352 -2.2072895,0.01601326 8.7185884,-4.0017078 c -1.7454984,2.3720609 -1.7354408,5.6174519 -6e-7,8.035443 z"
         transform="scale(-0.6,-0.6)"
         inkscape:connector-curvature="0" />
    </marker>
    <marker
       inkscape:stockid="Arrow2MendS"
       orient="auto"
       refY="0"
       refX="0"
       id="Arrow2MendS"
       style="overflow:visible">
      <path
         id="path5295"
         style="font-size:12px;fill:#b4b4b4;fill-rule:evenodd;stroke:#b4b4b4;stroke-width:0.625;stroke-linejoin:round"
         d="M 8.7185878,4.0337352 -2.2072895,0.01601326 8.7185884,-4.0017078 c -1.7454984,2.3720609 -1.7354408,5.6174519 -6e-7,8.035443 z"
         transform="scale(-0.6,-0.6)"
         inkscape:connector-curvature="0" />
    </marker>
    <marker
       inkscape:stockid="Arrow2Mend6"
       orient="auto"
       refY="0"
       refX="0"
       id="Arrow2Mend6"
       style="overflow:visible">
      <path
         id="path5298"
         style="font-size:12px;fill:#b4b4b4;fill-rule:evenodd;stroke:#b4b4b4;stroke-width:0.625;stroke-linejoin:round"
         d="M 8.7185878,4.0337352 -2.2072895,0.01601326 8.7185884,-4.0017078 c -1.7454984,2.3720609 -1.7354408,5.6174519 -6e-7,8.035443 z"
         transform="scale(-0.6,-0.6)"
         inkscape:connector-curvature="0" />
    </marker>
    <marker
       inkscape:stockid="Arrow2MendPd"
       orient="auto"
       refY="0"
       refX="0"
       id="Arrow2MendPd"
       style="overflow:visible">
      <path
         id="path5301"
         style="font-size:12px;fill:#b4b4b4;fill-rule:evenodd;stroke:#b4b4b4;stroke-width:0.625;stroke-linejoin:round"
         d="M 8.7185878,4.0337352 -2.2072895,0.01601326 8.7185884,-4.0017078 c -1.7454984,2.3720609 -1.7354408,5.6174519 -6e-7,8.035443 z"
         transform="scale(-0.6,-0.6)"
         inkscape:connector-curvature="0" />
    </marker>
    <marker
       inkscape:stockid="Arrow2MendW"
       orient="auto"
       refY="0"
       refX="0"
       id="Arrow2MendW"
       style="overflow:visible">
      <path
         id="path7096"
         style="font-size:12px;fill:#b4b4b4;fill-rule:evenodd;stroke:#b4b4b4;stroke-width:0.625;stroke-linejoin:round"
         d="M 8.7185878,4.0337352 -2.2072895,0.01601326 8.7185884,-4.0017078 c -1.7454984,2.3720609 -1.7354408,5.6174519 -6e-7,8.035443 z"
         transform="scale(-0.6,-0.6)"
         inkscape:connector-curvature="0" />
    </marker>
    <marker
       inkscape:stockid="Arrow2MendMg"
       orient="auto"
       refY="0"
       refX="0"
       id="Arrow2MendMg"
       style="overflow:visible">
      <path
         id="path7099"
         style="font-size:12px;fill:#b4b4b4;fill-rule:evenodd;stroke:#b4b4b4;stroke-width:0.625;stroke-linejoin:round"
         d="M 8.7185878,4.0337352 -2.2072895,0.01601326 8.7185884,-4.0017078 c -1.7454984,2.3720609 -1.7354408,5.6174519 -6e-7,8.035443 z"
         transform="scale(-0.6,-0.6)"
         inkscape:connector-curvature="0" />
    </marker>
    <marker
       style="overflow:visible"
       id="Arrow2MstartG"
       refX="0"
       refY="0"
       orient="auto"
       inkscape:stockid="Arrow2MstartG">
      <path
         transform="scale(0.6,0.6)"
         d="M 8.7185878,4.0337352 -2.2072895,0.01601326 8.7185884,-4.0017078 c -1.7454984,2.3720609 -1.7354408,5.6174519 -6e-7,8.035443 z"
         style="font-size:12px;fill:#b4b4b4;fill-rule:evenodd;stroke:#b4b4b4;stroke-width:0.625;stroke-linejoin:round"
         id="path7102"
         inkscape:connector-curvature="0" />
    </marker>
    <marker
       style="overflow:visible"
       id="Arrow2Mstartd"
       refX="0"
       refY="0"
       orient="auto"
       inkscape:stockid="Arrow2Mstartd">
      <path
         transform="scale(0.6,0.6)"
         d="M 8.7185878,4.0337352 -2.2072895,0.01601326 8.7185884,-4.0017078 c -1.7454984,2.3720609 -1.7354408,5.6174519 -6e-7,8.035443 z"
         style="font-size:12px;fill:#b4b4b4;fill-rule:evenodd;stroke:#b4b4b4;stroke-width:0.625;stroke-linejoin:round"
         id="path7105"
         inkscape:connector-curvature="0" />
    </marker>
    <marker
       inkscape:stockid="Arrow2Mendn"
       orient="auto"
       refY="0"
       refX="0"
       id="Arrow2Mendn"
       style="overflow:visible">
      <path
         id="path7108"
         style="font-size:12px;fill:#b4b4b4;fill-rule:evenodd;stroke:#b4b4b4;stroke-width:0.625;stroke-linejoin:round"
         d="M 8.7185878,4.0337352 -2.2072895,0.01601326 8.7185884,-4.0017078 c -1.7454984,2.3720609 -1.7354408,5.6174519 -6e-7,8.035443 z"
         transform="scale(-0.6,-0.6)"
         inkscape:connector-curvature="0" />
    </marker>
    <marker
       inkscape:stockid="Arrow2MendJd"
       orient="auto"
       refY="0"
       refX="0"
       id="Arrow2MendJd"
       style="overflow:visible">
      <path
         id="path7111"
         style="font-size:12px;fill:#ff0000;fill-rule:evenodd;stroke:#ff0000;stroke-width:0.625;stroke-linejoin:round"
         d="M 8.7185878,4.0337352 -2.2072895,0.01601326 8.7185884,-4.0017078 c -1.7454984,2.3720609 -1.7354408,5.6174519 -6e-7,8.035443 z"
         transform="scale(-0.6,-0.6)"
         inkscape:connector-curvature="0" />
    </marker>
    <marker
       style="overflow:visible"
       id="Arrow2Mstarts"
       refX="0"
       refY="0"
       orient="auto"
       inkscape:stockid="Arrow2Mstarts">
      <path
         transform="scale(0.6,0.6)"
         d="M 8.7185878,4.0337352 -2.2072895,0.01601326 8.7185884,-4.0017078 c -1.7454984,2.3720609 -1.7354408,5.6174519 -6e-7,8.035443 z"
         style="font-size:12px;fill:#b4b4b4;fill-rule:evenodd;stroke:#b4b4b4;stroke-width:0.625;stroke-linejoin:round"
         id="path7114"
         inkscape:connector-curvature="0" />
    </marker>
    <marker
       inkscape:stockid="Arrow2Mend7"
       orient="auto"
       refY="0"
       refX="0"
       id="Arrow2Mend7"
       style="overflow:visible">
      <path
         id="path7117"
         style="font-size:12px;fill:#b4b4b4;fill-rule:evenodd;stroke:#b4b4b4;stroke-width:0.625;stroke-linejoin:round"
         d="M 8.7185878,4.0337352 -2.2072895,0.01601326 8.7185884,-4.0017078 c -1.7454984,2.3720609 -1.7354408,5.6174519 -6e-7,8.035443 z"
         transform="scale(-0.6,-0.6)"
         inkscape:connector-curvature="0" />
    </marker>
    <marker
       inkscape:stockid="Arrow2MendJdl"
       orient="auto"
       refY="0"
       refX="0"
       id="Arrow2MendJdl"
       style="overflow:visible">
      <path
         id="path7380"
         style="font-size:12px;fill:#000000;fill-rule:evenodd;stroke:#000000;stroke-width:0.625;stroke-linejoin:round"
         d="M 8.7185878,4.0337352 -2.2072895,0.01601326 8.7185884,-4.0017078 c -1.7454984,2.3720609 -1.7354408,5.6174519 -6e-7,8.035443 z"
         transform="scale(-0.6,-0.6)"
         inkscape:connector-curvature="0" />
    </marker>
  </defs>
  <metadata
     id="metadata7">
    <rdf:RDF>
      <cc:Work
         rdf:about="">
        <dc:format>image/svg+xml</dc:format>
        <dc:type
           rdf:resource="http://purl.org/dc/dcmitype/StillImage" />
        <dc:title />
      </cc:Work>
    </rdf:RDF>
  </metadata>
  <g
     transform="translate(-149.78063,-558.06108)"
     id="layer1"
     inkscape:groupmode="layer"
     inkscape:label="Ebene 1">
    <path
       style="fill:none;stroke:#b4b4b4;stroke-width:4;stroke-linecap:butt;stroke-linejoin:miter;stroke-miterlimit:4;stroke-opacity:1;stroke-dasharray:none;marker-start:url(#Arrow2Mstartd);marker-end:none"
       d="m 512.22791,599.34346 31.25667,177.2654"
       id="path4778"
       inkscape:connector-curvature="0" />
    <path
       style="fill:none;stroke:#b4b4b4;stroke-width:4;stroke-linecap:butt;stroke-linejoin:miter;stroke-miterlimit:4;stroke-opacity:1;stroke-dasharray:none;marker-start:url(#Arrow2MstartG);marker-end:none"
       d="M 563.18073,773.13589 531.92406,595.8705"
       id="path4780"
       inkscape:connector-curvature="0" />
    <path
       sodipodi:type="arc"
       style="color:#000000;fill:#b4b4b4;fill-opacity:1;stroke:none;stroke-width:4;marker:none;visibility:visible;display:inline;overflow:visible;enable-background:accumulate"
       id="path4784"
       sodipodi:cx="470"
       sodipodi:cy="335.83618"
       sodipodi:rx="10"
       sodipodi:ry="10"
       d="m 480,335.83618 c 0,5.52285 -4.47715,10 -10,10 -5.52285,0 -10,-4.47715 -10,-10 0,-5.52285 4.47715,-10 10,-10 5.52285,0 10,4.47715 10,10 z"
       transform="matrix(0.98480775,-0.17364818,0.17364818,0.98480775,37.365118,555.29718)" />
    <path
       sodipodi:type="arc"
       style="color:#000000;fill:#b4b4b4;fill-opacity:1;stroke:none;stroke-width:4;marker:none;visibility:visible;display:inline;overflow:visible;enable-background:accumulate"
       id="path4764"
       sodipodi:cx="470"
       sodipodi:cy="95.836182"
       sodipodi:rx="10"
       sodipodi:ry="10"
       d="m 480,95.836182 c 0,5.522848 -4.47715,9.999998 -10,9.999998 -5.52285,0 -10,-4.47715 -10,-9.999998 0,-5.522848 4.47715,-10 10,-10 5.52285,0 10,4.477152 10,10 z"
       transform="matrix(0.98480775,-0.17364818,0.17364818,0.98480775,37.365118,555.29718)" />
    <path
       style="fill:none;stroke:#000000;stroke-width:4;stroke-linecap:butt;stroke-linejoin:miter;stroke-miterlimit:4;stroke-opacity:1;stroke-dasharray:none;marker-end:url(#Arrow2MendJdl)"
       d="M 492.09596,587.72027 191.39433,697.16672"
       id="path4760"
       inkscape:connector-curvature="0"
       sodipodi:nodetypes="cc" />
    <path
       style="fill:none;stroke:#b4b4b4;stroke-width:4;stroke-linecap:butt;stroke-linejoin:miter;stroke-miterlimit:4;stroke-opacity:1;stroke-dasharray:none;marker-end:url(#Arrow2Mend7)"
       d="M 184.55393,678.37287 485.25556,568.92642"
       id="path4762"
       inkscape:connector-curvature="0"
       sodipodi:nodetypes="cc" />
    <path
       sodipodi:type="arc"
       style="color:#000000;fill:#b4b4b4;fill-opacity:1;stroke:none;stroke-width:4;marker:none;visibility:visible;display:inline;overflow:visible;enable-background:accumulate"
       id="path4758"
       sodipodi:cx="90"
       sodipodi:cy="95.836182"
       sodipodi:rx="10"
       sodipodi:ry="10"
       d="m 100,95.836182 c 0,5.522848 -4.477153,9.999998 -10,9.999998 -5.522847,0 -10,-4.47715 -10,-9.999998 0,-5.522848 4.477153,-10 10,-10 5.522847,0 10,4.477152 10,10 z"
       transform="matrix(0.93969261,-0.34202015,0.34202015,0.93969261,42.433107,638.75567)" />
    <path
       sodipodi:type="arc"
       style="color:#000000;fill:#b4b4b4;fill-opacity:1;stroke:none;stroke-width:4;marker:none;visibility:visible;display:inline;overflow:visible;enable-background:accumulate"
       id="path4770"
       sodipodi:cx="90"
       sodipodi:cy="375.83618"
       sodipodi:rx="10"
       sodipodi:ry="10"
       d="m 100,375.83618 c 0,5.52285 -4.477153,10 -10,10 -5.522847,0 -10,-4.47715 -10,-10 0,-5.52285 4.477153,-10 10,-10 5.522847,0 10,4.47715 10,10 z"
       transform="matrix(0.76604443,-0.64278761,0.64278761,0.76604443,29.237044,682.46652)" />
    <path
       style="fill:none;stroke:#b4b4b4;stroke-width:4;stroke-linecap:butt;stroke-linejoin:miter;stroke-miterlimit:4;stroke-opacity:1;stroke-dasharray:none;marker-end:url(#Arrow2Mendn)"
       d="M 186.72742,714.58386 328.14069,883.11364"
       id="path4766"
       inkscape:connector-curvature="0" />
    <path
       style="fill:none;stroke:#b4b4b4;stroke-width:4;stroke-linecap:butt;stroke-linejoin:miter;stroke-miterlimit:4;stroke-opacity:1;stroke-dasharray:none;marker-start:url(#Arrow2Mstarts);marker-end:none"
       d="M 171.40653,727.43962 312.81981,895.96939"
       id="path4772"
       inkscape:connector-curvature="0" />
    <path
       style="fill:none;stroke:#b4b4b4;stroke-width:4;stroke-linecap:butt;stroke-linejoin:miter;stroke-miterlimit:4;stroke-opacity:1;stroke-dasharray:none;marker-end:url(#Arrow2MendMg)"
       d="m 274.6351,392.18182 182.90857,-90.3818"
       id="path5310"
       inkscape:connector-curvature="0"
       transform="translate(78.63217,502.51156)" />
    <path
       style="fill:none;stroke:#b4b4b4;stroke-width:4;stroke-linecap:butt;stroke-linejoin:miter;stroke-miterlimit:4;stroke-opacity:1;stroke-dasharray:none;marker-end:url(#Arrow2MendW)"
       d="M 466.40615,319.73504 283.49732,410.11632"
       id="path5312"
       inkscape:connector-curvature="0"
       transform="translate(78.63217,502.51156)" />
    <text
       xml:space="preserve"
       style="font-size:24px;font-style:normal;font-variant:normal;font-weight:normal;font-stretch:normal;text-indent:0;text-align:start;text-decoration:none;line-height:125%;letter-spacing:0px;word-spacing:0px;text-transform:none;direction:ltr;block-progression:tb;writing-mode:lr-tb;text-anchor:start;baseline-shift:baseline;color:#000000;fill:#000000;fill-opacity:1;fill-rule:nonzero;stroke:none;stroke-width:1px;marker:none;visibility:visible;display:inline;overflow:visible;enable-background:accumulate;font-family:Sans;-inkscape-font-specification:Helvetica"
       x="25.678518"
       y="746.2406"
       id="text7562"
       sodipodi:linespacing="125%"
       transform="matrix(0.93969262,-0.34202015,0.34202015,0.93969262,0,0)"><tspan
         sodipodi:role="line"
         id="tspan7564"
         x="25.678518"
         y="746.2406">inner half-edge</tspan></text>
    <text
       xml:space="preserve"
       style="font-size:24px;font-style:normal;font-variant:normal;font-weight:normal;font-stretch:normal;text-indent:0;text-align:start;text-decoration:none;line-height:125%;letter-spacing:0px;word-spacing:0px;text-transform:none;direction:ltr;block-progression:tb;writing-mode:lr-tb;text-anchor:start;baseline-shift:baseline;color:#000000;fill:#b4b4b4;fill-opacity:1;fill-rule:nonzero;stroke:none;stroke-width:1px;marker:none;visibility:visible;display:inline;overflow:visible;enable-background:accumulate;font-family:Sans;-inkscape-font-specification:Helvetica"
       x="9.5680847"
       y="688.23962"
       id="text7566"
       sodipodi:linespacing="125%"
       transform="matrix(0.93969262,-0.34202015,0.34202015,0.93969262,0,0)"><tspan
         sodipodi:role="line"
         id="tspan7568"
         x="9.5680847"
         y="688.23962">outer half-edge</tspan></text>
    <text
       xml:space="preserve"
       style="font-size:24px;font-style:normal;font-variant:normal;font-weight:normal;font-stretch:normal;text-indent:0;text-align:start;text-decoration:none;line-height:125%;letter-spacing:0px;word-spacing:0px;text-transform:none;direction:ltr;block-progression:tb;writing-mode:lr-tb;text-anchor:start;baseline-shift:baseline;color:#000000;fill:#ff0000;fill-opacity:1;fill-rule:nonzero;stroke:none;stroke-width:1px;marker:none;visibility:visible;display:inline;overflow:visible;enable-background:accumulate;font-family:Sans;-inkscape-font-specification:Helvetica"
       x="363.49518"
       y="749.54565"
       id="text7570"
       sodipodi:linespacing="125%"><tspan
         sodipodi:role="line"
         id="tspan7572"
         x="363.49518"
         y="749.54565">face</tspan></text>
  </g>
</svg>
